<svg width="45" height="45" viewBox="0 0 45 45" fill="none" xmlns="http://www.w3.org/2000/svg">
<path d="M23.9667 40V30H29.8245L22.5023 20L15.18 30H21.0378V40H13.7156V39.9167C13.4685 39.9323 13.2351 40 12.9834 40C10.0704 40 7.27674 38.683 5.21695 36.3388C3.15717 33.9946 2 30.8152 2 27.5C2.0038 24.4397 2.998 21.4883 4.79273 19.2094C6.58745 16.9305 9.05691 15.4839 11.7294 15.1458C12.21 12.2938 13.5481 9.7212 15.5139 7.86978C17.4797 6.01837 19.9506 5.00369 22.5023 5C25.0547 5.00248 27.5267 6.01661 29.4935 7.86813C31.4603 9.71964 32.799 12.2929 33.2797 15.1458C35.9506 15.4863 38.4178 16.9339 40.2107 19.2126C42.0035 21.4912 42.9965 24.4413 43 27.5C43 30.8152 41.8428 33.9946 39.783 36.3388C37.7233 38.683 34.9296 40 32.0166 40C31.7741 40 31.5361 39.9323 31.2844 39.9167V40H23.9667Z" fill="#595959"/>
</svg>
