<svg width="30" height="30" viewBox="0 0 30 30" fill="none" xmlns="http://www.w3.org/2000/svg">
<g clip-path="url(#clip0_2059_1376)">
<path fill-rule="evenodd" clip-rule="evenodd" d="M5.85771 -1C4.03939 -1 2.2955 -0.277855 1.00951 1.00764C-0.276487 2.29314 -0.999302 4.03675 -1 5.85507V24.1423C-1 25.9611 -0.277494 27.7054 1.00858 28.9914C2.29465 30.2775 4.03893 31 5.85771 31H24.1449C25.9632 30.9993 27.7069 30.2765 28.9924 28.9905C30.2779 27.7045 31 25.9606 31 24.1423V5.85507C30.9993 4.03721 30.2768 2.294 28.9914 1.00858C27.706 -0.276849 25.9628 -0.999302 24.1449 -1H5.85771ZM26.1174 5.86561C26.1174 6.38945 25.9093 6.89183 25.5389 7.26225C25.1685 7.63266 24.6661 7.84075 24.1423 7.84075C23.6185 7.84075 23.1161 7.63266 22.7457 7.26225C22.3752 6.89183 22.1671 6.38945 22.1671 5.86561C22.1671 5.34177 22.3752 4.83938 22.7457 4.46897C23.1161 4.09856 23.6185 3.89046 24.1423 3.89046C24.6661 3.89046 25.1685 4.09856 25.5389 4.46897C25.9093 4.83938 26.1174 5.34177 26.1174 5.86561ZM15.0039 9.52094C13.5512 9.52094 12.1579 10.0981 11.1306 11.1253C10.1033 12.1526 9.52621 13.5459 9.52621 14.9987C9.52621 16.4515 10.1033 17.8448 11.1306 18.872C12.1579 19.8993 13.5512 20.4764 15.0039 20.4764C16.4567 20.4764 17.85 19.8993 18.8773 18.872C19.9046 17.8448 20.4817 16.4515 20.4817 14.9987C20.4817 13.5459 19.9046 12.1526 18.8773 11.1253C17.85 10.0981 16.4567 9.52094 15.0039 9.52094ZM6.89005 14.9987C6.89005 12.8474 7.74463 10.7843 9.26578 9.26315C10.7869 7.74199 12.8501 6.88742 15.0013 6.88742C17.1526 6.88742 19.2157 7.74199 20.7368 9.26315C22.258 10.7843 23.1126 12.8474 23.1126 14.9987C23.1126 17.1499 22.258 19.2131 20.7368 20.7342C19.2157 22.2554 17.1526 23.11 15.0013 23.11C12.8501 23.11 10.7869 22.2554 9.26578 20.7342C7.74463 19.2131 6.89005 17.1499 6.89005 14.9987Z" fill="white"/>
</g>
<defs>
<clipPath id="clip0_2059_1376">
<rect width="30" height="30" fill="white"/>
</clipPath>
</defs>
</svg>
