<svg width="32" height="32" viewBox="0 0 32 32" fill="none" xmlns="http://www.w3.org/2000/svg">
<path d="M21.2548 23.9507C21.5615 21.4453 19.9482 19.848 15.6882 18.488C13.6242 17.784 12.6522 16.8613 12.6748 15.5933C12.7615 14.1853 14.0722 13.16 15.8108 13.1267C17.1801 13.1414 18.5155 13.5537 19.6548 14.3133C19.8095 14.4093 19.9175 14.3933 20.0055 14.26C20.1255 14.068 20.4255 13.6027 20.5255 13.4333C20.5935 13.3267 20.6068 13.1853 20.4348 13.06C20.1882 12.8773 19.4962 12.5067 19.1242 12.3507C18.0647 11.9023 16.9266 11.6693 15.7762 11.6653C13.2295 11.676 11.2255 13.2853 11.0562 15.4333C10.9477 16.9853 11.7166 18.2418 13.3628 19.2027C13.7135 19.4053 15.6028 20.1573 16.3548 20.392C18.7202 21.128 19.9482 22.448 19.6588 23.988C19.3962 25.384 17.9268 26.2867 15.9015 26.3133C14.2975 26.252 12.8522 25.5973 11.7322 24.7267L11.5442 24.58C11.4055 24.4733 11.2535 24.48 11.1615 24.62C11.0948 24.7227 10.6602 25.3493 10.5508 25.5133C10.4482 25.6573 10.5042 25.7373 10.6108 25.8253C11.0775 26.216 11.7002 26.6427 12.1228 26.8587C13.2936 27.4552 14.5815 27.7862 15.8948 27.828C16.8403 27.8729 17.7843 27.7119 18.6615 27.356C20.1215 26.736 21.0655 25.4973 21.2548 23.9507ZM16.0002 1.868C13.2428 1.868 10.9948 4.468 10.8895 7.72133H21.1095C21.0015 4.46667 18.7548 1.86667 16.0002 1.86667M26.4682 31.9973L26.3615 31.9987L5.31615 31.996C3.88415 31.9427 2.83215 30.7827 2.68815 29.3413L2.67482 29.0813L1.73215 8.38C1.72598 8.29684 1.73682 8.21329 1.76403 8.13446C1.79123 8.05563 1.83423 7.98317 1.89039 7.92153C1.94655 7.85988 2.01469 7.81033 2.09064 7.77591C2.1666 7.74149 2.24878 7.72292 2.33215 7.72133H8.96549C9.12682 3.424 12.2135 0 16.0002 0C19.7868 0 22.8708 3.42533 23.0335 7.72H29.6575C29.7405 7.72026 29.8225 7.73734 29.8987 7.77023C29.9748 7.80311 30.0436 7.85111 30.1006 7.91131C30.1577 7.97151 30.202 8.04267 30.2308 8.12048C30.2596 8.19829 30.2723 8.28114 30.2682 8.364L29.2375 29.148L29.2282 29.3227C29.1028 30.7813 27.9228 31.9587 26.4682 31.9973Z" fill="white"/>
</svg>
