<svg width="15" height="15" viewBox="0 0 15 15" fill="none" xmlns="http://www.w3.org/2000/svg">
<path d="M10.625 11.25C10.9565 11.25 11.2745 11.3817 11.5089 11.6161C11.7433 11.8505 11.875 12.1685 11.875 12.5C11.875 12.8315 11.7433 13.1495 11.5089 13.3839C11.2745 13.6183 10.9565 13.75 10.625 13.75C10.2935 13.75 9.97554 13.6183 9.74112 13.3839C9.5067 13.1495 9.375 12.8315 9.375 12.5C9.375 11.8063 9.93125 11.25 10.625 11.25ZM0.625 1.25H2.66875L3.25625 2.5H12.5C12.6658 2.5 12.8247 2.56585 12.9419 2.68306C13.0592 2.80027 13.125 2.95924 13.125 3.125C13.125 3.23125 13.0938 3.3375 13.05 3.4375L10.8125 7.48125C10.6 7.8625 10.1875 8.125 9.71875 8.125H5.0625L4.5 9.14375L4.48125 9.21875C4.48125 9.26019 4.49771 9.29993 4.52701 9.32924C4.55632 9.35854 4.59606 9.375 4.6375 9.375H11.875V10.625H4.375C4.04348 10.625 3.72554 10.4933 3.49112 10.2589C3.2567 10.0245 3.125 9.70652 3.125 9.375C3.125 9.15625 3.18125 8.95 3.275 8.775L4.125 7.24375L1.875 2.5H0.625V1.25ZM4.375 11.25C4.70652 11.25 5.02446 11.3817 5.25888 11.6161C5.4933 11.8505 5.625 12.1685 5.625 12.5C5.625 12.8315 5.4933 13.1495 5.25888 13.3839C5.02446 13.6183 4.70652 13.75 4.375 13.75C4.04348 13.75 3.72554 13.6183 3.49112 13.3839C3.2567 13.1495 3.125 12.8315 3.125 12.5C3.125 11.8063 3.68125 11.25 4.375 11.25ZM10 6.875L11.7375 3.75H3.8375L5.3125 6.875H10Z" fill="white"/>
</svg>
