<svg width="32" height="32" viewBox="0 0 32 32" fill="none" xmlns="http://www.w3.org/2000/svg">
<rect width="32" height="32" fill="black"/>
<path d="M5.33334 8C5.33334 7.64638 5.47382 7.30724 5.72387 7.05719C5.97392 6.80714 6.31305 6.66667 6.66668 6.66667H25.3333C25.687 6.66667 26.0261 6.80714 26.2762 7.05719C26.5262 7.30724 26.6667 7.64638 26.6667 8C26.6667 8.35362 26.5262 8.69276 26.2762 8.94281C26.0261 9.19286 25.687 9.33333 25.3333 9.33333H6.66668C6.31305 9.33333 5.97392 9.19286 5.72387 8.94281C5.47382 8.69276 5.33334 8.35362 5.33334 8ZM5.33334 16C5.33334 15.6464 5.47382 15.3072 5.72387 15.0572C5.97392 14.8071 6.31305 14.6667 6.66668 14.6667H25.3333C25.687 14.6667 26.0261 14.8071 26.2762 15.0572C26.5262 15.3072 26.6667 15.6464 26.6667 16C26.6667 16.3536 26.5262 16.6928 26.2762 16.9428C26.0261 17.1929 25.687 17.3333 25.3333 17.3333H6.66668C6.31305 17.3333 5.97392 17.1929 5.72387 16.9428C5.47382 16.6928 5.33334 16.3536 5.33334 16ZM6.66668 22.6667C6.31305 22.6667 5.97392 22.8071 5.72387 23.0572C5.47382 23.3072 5.33334 23.6464 5.33334 24C5.33334 24.3536 5.47382 24.6928 5.72387 24.9428C5.97392 25.1929 6.31305 25.3333 6.66668 25.3333H25.3333C25.687 25.3333 26.0261 25.1929 26.2762 24.9428C26.5262 24.6928 26.6667 24.3536 26.6667 24C26.6667 23.6464 26.5262 23.3072 26.2762 23.0572C26.0261 22.8071 25.687 22.6667 25.3333 22.6667H6.66668Z" fill="white"/>
</svg>
